<svg xmlns="http://www.w3.org/2000/svg" width="66" height="66" viewBox="0 0 66 66">
  <g id="icon-linkedin" transform="translate(-861 -5125)">
    <g id="Group_11" data-name="Group 11" transform="translate(862.465 5125)">
      <path id="Path_4" data-name="Path 4" d="M23.023,13.23a7.642,7.642,0,0,1,7.642,7.642v8.916H25.57V20.872a2.547,2.547,0,0,0-5.095,0v8.916H15.381V20.872a7.642,7.642,0,0,1,7.642-7.642Z" transform="translate(15.162 14.137)" fill="none" stroke="#fff" stroke-width="1"/>
      <path id="Path_5" data-name="Path 5" d="M15.552,13.844H10.457V29.128h5.095Z" transform="translate(9.901 14.793)" fill="none" stroke="#fff" stroke-width="1"/>
      <path id="Path_6" data-name="Path 6" d="M13,14.63a2.547,2.547,0,1,0-2.547-2.547A2.547,2.547,0,0,0,13,14.63Z" transform="translate(9.901 10.189)" fill="none" stroke="#fff" stroke-width="1"/>
    </g>
    <g id="Ellipse_7" data-name="Ellipse 7" transform="translate(861 5125)" fill="none" stroke="#fff" stroke-width="1">
      <circle cx="33" cy="33" r="33" stroke="none"/>
      <circle cx="33" cy="33" r="32.5" fill="none"/>
    </g>
  </g>
</svg>
