<svg xmlns="http://www.w3.org/2000/svg" width="50.651" height="50.651" viewBox="0 0 50.651 50.651">
  <path id="linked-in-profile" d="M0,3.628A3.674,3.674,0,0,1,3.72,0H46.931a3.674,3.674,0,0,1,3.72,3.628v43.4a3.674,3.674,0,0,1-3.72,3.628H3.72A3.674,3.674,0,0,1,0,47.023ZM15.648,42.4V19.529h-7.6V42.4Zm-3.8-26A3.963,3.963,0,1,0,11.9,8.5a3.962,3.962,0,1,0-.1,7.9Zm15.537,26V29.628a5.161,5.161,0,0,1,.253-1.855,4.158,4.158,0,0,1,3.9-2.779c2.751,0,3.849,2.1,3.849,5.173V42.4h7.6V29.283c0-7.028-3.748-10.295-8.75-10.295a7.552,7.552,0,0,0-6.854,3.777v.079h-.051l.051-.079V19.529h-7.6c.095,2.146,0,22.872,0,22.872Z" fill="#fff"/>
</svg>
