<svg xmlns="http://www.w3.org/2000/svg" width="66" height="66" viewBox="0 0 66 66">
  <g id="icon-ticktok" transform="translate(-1034 -5125)">
    <g id="Group_13" data-name="Group 13" transform="translate(1034.221 5125)">
      <path id="Path_7" data-name="Path 7" d="M31.237,7c.588,5.043,3.41,8.05,8.316,8.37v5.672c-2.843.277-5.334-.65-8.23-2.4V29.252c0,13.478-14.729,17.689-20.65,8.029C6.867,31.065,9.2,20.158,21.4,19.72V25.7a17.675,17.675,0,0,0-2.832.693c-2.715.917-4.254,2.634-3.827,5.662.823,5.8,11.49,7.517,10.6-3.817V7.011h5.889Z" transform="translate(9.617 7.48)" fill="none" stroke="#fff" stroke-width="1" fill-rule="evenodd"/>
    </g>
    <g id="Ellipse_5" data-name="Ellipse 5" transform="translate(1034 5125)" fill="none" stroke="#fff" stroke-width="1">
      <circle cx="33" cy="33" r="33" stroke="none"/>
      <circle cx="33" cy="33" r="32.5" fill="none"/>
    </g>
  </g>
</svg>
