<svg xmlns="http://www.w3.org/2000/svg" width="22.844" height="21.707" viewBox="0 0 22.844 21.707">
  <g id="Group_77" data-name="Group 77" transform="translate(-90.671 -8020.323)">
    <path id="Path_78" data-name="Path 78" d="M22.235,13.23a6.854,6.854,0,0,1,6.854,6.854v8H24.52v-8a2.285,2.285,0,0,0-4.57,0v8h-4.57v-8a6.854,6.854,0,0,1,6.854-6.854Z" transform="translate(84.425 8013.949)" fill="#fff"/>
    <path id="Path_79" data-name="Path 79" d="M15.027,13.844h-4.57V27.552h4.57Z" transform="translate(80.214 8014.474)" fill="#fff"/>
    <path id="Path_80" data-name="Path 80" d="M12.742,14.1a2.285,2.285,0,1,0-2.285-2.285A2.285,2.285,0,0,0,12.742,14.1Z" transform="translate(80.214 8010.788)" fill="#fff"/>
  </g>
</svg>
